<svg width="128" height="38" viewBox="0 0 128 38" fill="none" xmlns="http://www.w3.org/2000/svg">
<g clip-path="url(#clip0_355_47)">
<path d="M29.2739 33.9854C28.3757 34.4146 27.4415 34.8438 26.4714 35.273C25.5372 35.6664 24.5312 36.024 23.4533 36.3459C22.3754 36.632 21.1897 36.8645 19.8962 37.0433C18.6387 37.2221 17.2554 37.3115 15.7463 37.3115C10.9318 37.3115 7.21301 36.2386 4.59014 34.0927C2.00319 31.9468 0.709717 28.3704 0.709717 23.3633C0.709717 20.4664 1.15884 17.7483 2.05709 15.209C2.95533 12.6339 4.28473 10.3986 6.0453 8.50307C7.80586 6.57178 9.97961 5.05178 12.5666 3.94307C15.1535 2.83437 18.1177 2.28002 21.4592 2.28002C23.0401 2.28002 24.4773 2.38731 25.7708 2.6019C27.1002 2.81649 28.2859 3.1026 29.3278 3.46025C30.4057 3.78213 31.3579 4.13978 32.1842 4.53319C33.0466 4.9266 33.8191 5.30213 34.5017 5.65978L32.5615 15.6381H22.8605C22.8964 15.2805 22.9323 14.8155 22.9682 14.2433C23.0401 13.6711 23.094 13.0988 23.1299 12.5266C23.1659 11.9186 23.2018 11.3285 23.2377 10.7563C23.2736 10.184 23.2916 9.70119 23.2916 9.30778C23.2916 9.02166 23.2736 8.69978 23.2377 8.34213C23.2018 7.94872 23.112 7.57319 22.9682 7.21554C22.8245 6.8579 22.591 6.57178 22.2676 6.35719C21.9802 6.10684 21.5849 5.98166 21.0819 5.98166C20.1478 5.98166 19.2854 6.37507 18.495 7.1619C17.7405 7.91296 17.0578 8.93225 16.447 10.2198C15.8362 11.4715 15.2972 12.9021 14.8301 14.5115C14.3631 16.121 13.9678 17.7661 13.6445 19.4471C13.357 21.0923 13.1235 22.7195 12.9438 24.329C12.8001 25.9384 12.7282 27.3511 12.7282 28.5671C12.7282 28.9247 12.7462 29.3718 12.7821 29.9083C12.8181 30.4447 12.9259 30.9633 13.1055 31.464C13.2852 31.9647 13.5546 32.3939 13.9139 32.7515C14.3092 33.1092 14.8301 33.288 15.4769 33.288C16.5907 33.288 17.6686 32.6085 18.7106 31.2494C19.7525 29.8546 20.6687 27.3868 21.4592 23.8461H31.4297L29.2739 33.9854ZM47.9578 17.2475H48.335C49.0177 16.568 49.8082 15.9421 50.7064 15.3699C51.4609 14.8692 52.3592 14.4221 53.4011 14.0287C54.4431 13.6353 55.6108 13.4386 56.9043 13.4386C58.7727 13.4386 60.3176 13.9214 61.5392 14.8871C62.7609 15.817 63.3717 17.1045 63.3717 18.7497C63.3717 19.2504 63.3178 19.8226 63.21 20.4664C63.1022 21.0744 62.9764 21.736 62.8327 22.4513C62.689 23.1308 62.5273 23.8283 62.3477 24.5435C62.204 25.2231 62.0782 25.849 61.9704 26.4212L59.7068 36.8824H48.7662L51.7304 22.8805C51.8023 22.4155 51.8921 21.9506 51.9999 21.4857C52.1077 20.985 52.1616 20.5379 52.1616 20.1445C52.1616 19.608 52.0178 19.1788 51.7304 18.857C51.4789 18.4993 51.0837 18.3205 50.5447 18.3205C49.898 18.3205 49.2692 18.553 48.6584 19.0179C48.0835 19.4828 47.6344 19.8941 47.311 20.2518L43.754 36.8824H32.7593L40.4124 0.831543H51.4609L47.9578 17.2475ZM68.7578 15.7991C70.5902 14.905 72.4585 14.2612 74.3628 13.8678C76.303 13.4386 78.4588 13.224 80.8302 13.224C83.1297 13.224 85.034 13.4028 86.543 13.7605C88.0521 14.1181 89.2557 14.6367 90.154 15.3163C91.0522 15.9958 91.681 16.8005 92.0403 17.7304C92.3996 18.6603 92.5791 19.7153 92.5791 20.8955C92.5791 21.5751 92.5254 22.3083 92.4176 23.0951C92.3457 23.8819 92.2559 24.5435 92.1481 25.08L89.615 36.8824H80.938L79.9679 33.449H79.6445C78.4947 34.7007 77.1474 35.6664 75.6024 36.3459C74.0933 36.9897 72.5843 37.3115 71.0752 37.3115C70.2129 37.3115 69.3686 37.1864 68.5422 36.936C67.7158 36.6857 66.9792 36.3101 66.3325 35.8094C65.6858 35.273 65.1648 34.6113 64.7695 33.8245C64.3742 33.0019 64.1766 32.0184 64.1766 30.8739C64.1766 29.0141 64.6797 27.5478 65.6858 26.4748C66.7277 25.3661 68.0751 24.5435 69.7279 24.0071C71.4166 23.4348 73.3029 23.0772 75.3868 22.9341C77.5067 22.7911 79.6265 22.7195 81.7464 22.7195C81.8183 22.3619 81.9081 21.8612 82.0159 21.2174C82.1237 20.5379 82.1776 19.9478 82.1776 19.4471C82.1776 18.8033 81.9979 18.2132 81.6386 17.6767C81.3152 17.1045 80.6146 16.8184 79.5367 16.8184C78.2792 16.8184 77.345 17.1939 76.7342 17.945C76.1593 18.6603 75.782 19.5365 75.6024 20.5737H67.7338L68.7578 15.7991ZM81.1536 25.241H80.1835C79.1415 25.241 78.2432 25.384 77.4887 25.6701C76.7701 25.9205 76.1773 26.2603 75.7102 26.6894C75.279 27.1186 74.9557 27.6014 74.7401 28.1379C74.5245 28.6744 74.4167 29.2108 74.4167 29.7473C74.4167 30.6057 74.6323 31.2494 75.0635 31.6786C75.5305 32.1078 76.0695 32.3224 76.6803 32.3224C77.4348 32.3224 78.1714 32.0541 78.89 31.5177C79.6445 30.9812 80.1116 30.2659 80.2912 29.3718L81.1536 25.241ZM107.926 23.5779L120.484 13.8141H127.598L116.873 22.5586L124.903 36.8824H112.831L107.333 26.0993L105.07 36.8824H94.0752L101.728 0.831543H112.777L107.926 23.5779Z" fill="#32302A"/>
</g>
<defs>
<clipPath id="clip0_355_47">
<rect width="128" height="38" fill="white"/>
</clipPath>
</defs>
</svg>
